<svg xmlns="http://www.w3.org/2000/svg" width="23" height="24" viewBox="0 0 23 24">
    <g fill="none" fill-rule="evenodd" stroke="#4E4E4E" stroke-linecap="round" stroke-linejoin="round" stroke-width="1.5">
        <path d="M2.571 12.465v9.428c0 .474.384.857.858.857h15.428a.857.857 0 0 0 .857-.857v-9.428"/>
        <path d="M1.714 12.465a.857.857 0 0 1-.857-.858V8.18c0-.474.384-.857.857-.857h18.857c.474 0 .858.383.858.857v3.428a.857.857 0 0 1-.858.858H1.714zM11.143 22.749V7.32M16.018 4.898a13.574 13.574 0 0 1-4.848 2.424 13.529 13.529 0 0 1 2.424-4.848c1.507-1.507 2.36-1.274 3.035-.607.673.667.896 1.524-.61 3.03zM6.267 4.898a13.574 13.574 0 0 0 4.848 2.424 13.529 13.529 0 0 0-2.424-4.848C7.185.967 6.331 1.2 5.657 1.867c-.674.667-.896 1.524.61 3.03z"/>
    </g>
</svg>
