<svg xmlns="http://www.w3.org/2000/svg" xmlns:xlink="http://www.w3.org/1999/xlink" width="20" height="20" viewBox="0 0 20 20">
    <defs>
        <path id="a" d="M8 12a4 4 0 1 1 0-8 4 4 0 0 1 0 8m9.707 4.293l-4.82-4.82A5.968 5.968 0 0 0 14 8 6 6 0 0 0 2 8a6 6 0 0 0 6 6 5.968 5.968 0 0 0 3.473-1.113l4.82 4.82a.997.997 0 0 0 1.414 0 .999.999 0 0 0 0-1.414"/>
    </defs>
    <g fill="none" fill-rule="evenodd">
        <mask id="b" fill="#fff">
            <use xlink:href="#a"/>
        </mask>
        <use fill="#d0021b" xlink:href="#a"/>
        <g fill="#d0021b" mask="url(#b)">
            <path d="M0 0h21v21H0z"/>
        </g>
    </g>
</svg>
