<svg xmlns="http://www.w3.org/2000/svg" width="26" height="26" viewBox="0 0 26 26">
    <g fill="none" fill-rule="evenodd" stroke="#483838" stroke-linecap="round" stroke-linejoin="round" stroke-width="1.5" transform="translate(1 1)">
        <path d="M19.922 7.213a1.874 1.874 0 0 0 1.065 2.571l1.265.45a1.875 1.875 0 0 1 0 3.534l-1.265.45a1.874 1.874 0 0 0-1.065 2.571L20.5 18a1.875 1.875 0 0 1-2.5 2.5l-1.213-.576a1.874 1.874 0 0 0-2.571 1.065l-.45 1.265a1.875 1.875 0 0 1-3.533 0l-.45-1.265a1.875 1.875 0 0 0-2.572-1.065L6 20.5A1.874 1.874 0 0 1 3.5 18l.576-1.213a1.874 1.874 0 0 0-1.065-2.571l-1.265-.45a1.875 1.875 0 0 1 0-3.534l1.265-.45a1.874 1.874 0 0 0 1.065-2.569L3.5 6A1.874 1.874 0 0 1 6 3.5l1.213.576a1.875 1.875 0 0 0 2.57-1.063l.45-1.265a1.875 1.875 0 0 1 3.533 0l.45 1.265a1.874 1.874 0 0 0 2.571 1.065L18 3.5A1.875 1.875 0 0 1 20.5 6l-.578 1.213z"/>
        <circle cx="11.999" cy="12.001" r="4.5"/>
    </g>
</svg>
