<svg xmlns="http://www.w3.org/2000/svg" width="24" height="24" viewBox="0 0 24 24">
    <g fill="none" fill-rule="evenodd" stroke="#D0021B" stroke-linecap="round" stroke-linejoin="round" stroke-width="1.5">
        <path d="M12.75.75h4.5a3 3 0 0 1 3 3v3"/>
        <path d="M18 4.5l2.25 2.25L22.5 4.5M10.5 23.25H6a3 3 0 0 1-3-3v-3"/>
        <path d="M5.25 19.5L3 17.25.75 19.5M18.75 14.25h-2.033a1.342 1.342 0 0 0-.5 2.587l2.064.826a1.342 1.342 0 0 1-.5 2.587H15.75M17.25 14.25v-.75M17.25 21v-.75"/>
        <path d="M21.493 13.007a6 6 0 1 1-8.486 8.486 6 6 0 0 1 8.486-8.486M.747 4.5l4.5-3.75 4.5 3.75"/>
    </g>
</svg>
